<!-- icon666.com - MILLIONS OF FREE VECTOR ICONS --><svg viewBox="0 0 42.04 42.11" xmlns="http://www.w3.org/2000/svg"><g id="Layer_2" data-name="Layer 2"><g id="Layer_1-2" data-name="Layer 1"><g id="CV"><path id="_5" d="m20.12 42.09h-15.12a5 5 0 0 1 -5-5v-32.09a5 5 0 0 1 5-5h23.15a5 5 0 0 1 5 5v12a1.13 1.13 0 1 1 -2.25 0v-12a2.71 2.71 0 0 0 -2.72-2.71h-23.18a2.71 2.71 0 0 0 -2.74 2.71v32.12a2.71 2.71 0 0 0 2.74 2.71h15.12a1.13 1.13 0 0 1 0 2.26z" data-name="5"></path><path id="_4" d="m26.05 12.08h-19a1.13 1.13 0 1 1 0-2.25h19a1.13 1.13 0 0 1 0 2.25z" data-name="4"></path><path id="_3" d="m17.53 20.86h-10.45a1.13 1.13 0 0 1 0-2.26h10.45a1.13 1.13 0 0 1 0 2.26z" data-name="3"></path><path id="_2" d="m24.53 42.11a1.14 1.14 0 0 1 -1.14-1.11c.08-5.19 4.76-7.88 9.38-7.88h.08c4.43 0 9.19 2.5 9.19 7.86a1.14 1.14 0 0 1 -2.27 0c0-3.81-3.6-5.57-6.94-5.59s-7.11 1.69-7.17 5.61a1.13 1.13 0 0 1 -1.13 1.11z" data-name="2"></path><path id="_1" d="m32.78 31a5.35 5.35 0 1 1 5.33-5.35 5.35 5.35 0 0 1 -5.33 5.35zm0-8.89a3.54 3.54 0 1 0 3.52 3.54 3.53 3.53 0 0 0 -3.52-3.53z" data-name="1"></path></g></g></g></svg>